<svg xmlns="http://www.w3.org/2000/svg" viewBox="0 0 600 480">
<defs>
 <linearGradient id="wood" x1="0" y1="0" x2="1" y2="1"><stop offset="0" stop-color="#d7a05b"/><stop offset="0.45" stop-color="#b97832"/><stop offset="1" stop-color="#8e5125"/></linearGradient>
 <linearGradient id="wood2" x1="0" y1="0" x2="1" y2="0"><stop offset="0" stop-color="#e0ad68"/><stop offset="1" stop-color="#a9652c"/></linearGradient>
 <filter id="shadow" x="-20%" y="-20%" width="140%" height="150%"><feDropShadow dx="0" dy="12" stdDeviation="12" flood-opacity=".20"/></filter>
</defs>
<rect width="600" height="480" fill="#f7f7f5"/>
<ellipse cx="300" cy="410" rx="190" ry="25" fill="#000" opacity=".10"/>
<g filter="url(#shadow)" fill="url(#wood)" stroke="#814a22" stroke-width="8"><path d="M300 205q-35-115-135-105-45 10-20 70 35 75 125 85z"/><path d="M300 205q35-115 135-105 45 10 20 70-35 75-125 85z"/><path d="M300 205q-35 115-115 105-55-10-20-65 35-60 115-55z"/><path d="M300 205q35 115 115 105 55-10 20-65-35-60-115-55z"/><path d="M300 155v185" fill="none" stroke-width="14"/></g></svg>