<svg xmlns="http://www.w3.org/2000/svg" viewBox="0 0 600 480">
<defs>
 <linearGradient id="wood" x1="0" y1="0" x2="1" y2="1"><stop offset="0" stop-color="#d7a05b"/><stop offset="0.45" stop-color="#b97832"/><stop offset="1" stop-color="#8e5125"/></linearGradient>
 <linearGradient id="wood2" x1="0" y1="0" x2="1" y2="0"><stop offset="0" stop-color="#e0ad68"/><stop offset="1" stop-color="#a9652c"/></linearGradient>
 <filter id="shadow" x="-20%" y="-20%" width="140%" height="150%"><feDropShadow dx="0" dy="12" stdDeviation="12" flood-opacity=".20"/></filter>
</defs>
<rect width="600" height="480" fill="#f7f7f5"/>
<ellipse cx="300" cy="410" rx="190" ry="25" fill="#000" opacity=".10"/>
<g filter="url(#shadow)" fill="none" stroke="url(#wood)" stroke-width="10"><circle cx="300" cy="240" r="150"/><circle cx="300" cy="240" r="115"/><circle cx="300" cy="240" r="75"/><path d="M300 90v300M150 240h300M194 134l212 212M406 134L194 346"/><path d="M300 90q35 65 0 150 35 85 0 150M300 90q-35 65 0 150-35 85 0 150"/></g><circle cx="300" cy="240" r="28" fill="#c4873f"/></svg>