<svg xmlns="http://www.w3.org/2000/svg" viewBox="0 0 600 480">
<defs>
 <linearGradient id="wood" x1="0" y1="0" x2="1" y2="1"><stop offset="0" stop-color="#d7a05b"/><stop offset="0.45" stop-color="#b97832"/><stop offset="1" stop-color="#8e5125"/></linearGradient>
 <linearGradient id="wood2" x1="0" y1="0" x2="1" y2="0"><stop offset="0" stop-color="#e0ad68"/><stop offset="1" stop-color="#a9652c"/></linearGradient>
 <filter id="shadow" x="-20%" y="-20%" width="140%" height="150%"><feDropShadow dx="0" dy="12" stdDeviation="12" flood-opacity=".20"/></filter>
</defs>
<rect width="600" height="480" fill="#f7f7f5"/>
<ellipse cx="300" cy="410" rx="190" ry="25" fill="#000" opacity=".10"/>
<g filter="url(#shadow)"><circle cx="300" cy="235" r="155" fill="none" stroke="url(#wood)" stroke-width="28"/>
<path d="M300 365V205 M300 250L220 170 M300 250L380 165 M250 300L180 245 M350 300L425 235 M300 205L260 145 M300 205L345 145" fill="none" stroke="#9b5e28" stroke-width="18" stroke-linecap="round"/>
<path d="M235 190c18-25 35-35 52-42M365 185c-15-25-32-37-50-45M205 255c-25-12-40-27-50-45M395 255c25-12 40-28 50-47" fill="none" stroke="#e0aa62" stroke-width="9" stroke-linecap="round"/></g></svg>